HIERARCHY
ROOT Hips
{
	OFFSET 0.000000 97.167313 0.000000
	CHANNELS 6 Xposition Yposition Zposition Xrotation Yrotation Zrotation
	JOINT Spine
	{
		OFFSET 0.000000 13.784798 0.064400
		CHANNELS 3 Xrotation Yrotation Zrotation
		JOINT Spine1
		{
			OFFSET 0.000000 12.037903 0.404700
			CHANNELS 3 Xrotation Yrotation Zrotation
			JOINT Spine2
			{
				OFFSET 0.000000 17.795601 0.420200
				CHANNELS 3 Xrotation Yrotation Zrotation
				JOINT Neck
				{
					OFFSET 0.000000 39.131302 11.954600
					CHANNELS 3 Xrotation Yrotation Zrotation
					JOINT Head
					{
						OFFSET 0.000000 14.456192 15.627699
						CHANNELS 3 Xrotation Yrotation Zrotation
						JOINT HeadTop_End
						{
							OFFSET 0.000000 15.703506 7.603401
							CHANNELS 3 Xrotation Yrotation Zrotation
							End Site
							{
								OFFSET 0.000000 17.447403 0.000000
							}
						}
					}
				}
				JOINT LeftShoulder
				{
					OFFSET 17.399500 24.608795 1.168800
					CHANNELS 3 Xrotation Yrotation Zrotation
					JOINT LeftArm
					{
						OFFSET 18.980635 5.765305 1.818600
						CHANNELS 3 Xrotation Yrotation Zrotation
						JOINT LeftForeArm
						{
							OFFSET 49.290169 0.000000 0.000000
							CHANNELS 3 Xrotation Yrotation Zrotation
							JOINT LeftHand
							{
								OFFSET 31.562012 0.000000 0.000000
								CHANNELS 3 Xrotation Yrotation Zrotation
								JOINT LeftHandThumb1
								{
									OFFSET 6.133995 -4.388519 7.076070
									CHANNELS 3 Xrotation Yrotation Zrotation
									JOINT LeftHandThumb2
									{
										OFFSET 6.037666 -3.485840 3.485847
										CHANNELS 3 Xrotation Yrotation Zrotation
										JOINT LeftHandThumb3
										{
											OFFSET 6.496506 -3.750763 3.750761
											CHANNELS 3 Xrotation Yrotation Zrotation
											JOINT LeftHandThumb4
											{
												OFFSET 5.616882 -3.242905 3.242910
												CHANNELS 3 Xrotation Yrotation Zrotation
												End Site
												{
													OFFSET -1.254608 7.132141 0.375429
												}
											}
										}
									}
								}
								JOINT LeftHandPinky1
								{
									OFFSET 18.920792 -0.453171 -11.426712
									CHANNELS 3 Xrotation Yrotation Zrotation
									JOINT LeftHandPinky2
									{
										OFFSET 4.919586 0.000000 0.000000
										CHANNELS 3 Xrotation Yrotation Zrotation
										JOINT LeftHandPinky3
										{
											OFFSET 5.233047 0.000000 0.000000
											CHANNELS 3 Xrotation Yrotation Zrotation
											JOINT LeftHandPinky4
											{
												OFFSET 5.571716 0.000000 0.000000
												CHANNELS 3 Xrotation Yrotation Zrotation
												End Site
												{
													OFFSET -3.459808 4.342407 -0.466164
												}
											}
										}
									}
								}
								JOINT LeftHandRing1
								{
									OFFSET 22.726120 -0.094986 -6.500475
									CHANNELS 3 Xrotation Yrotation Zrotation
									JOINT LeftHandRing2
									{
										OFFSET 6.408615 0.000000 0.000000
										CHANNELS 3 Xrotation Yrotation Zrotation
										JOINT LeftHandRing3
										{
											OFFSET 6.150223 0.000000 0.000000
											CHANNELS 3 Xrotation Yrotation Zrotation
											JOINT LeftHandRing4
											{
												OFFSET 6.145386 0.000000 0.000000
												CHANNELS 3 Xrotation Yrotation Zrotation
												End Site
												{
													OFFSET -3.671402 4.923981 -0.202372
												}
											}
										}
									}
								}
								JOINT LeftHandMiddle1
								{
									OFFSET 23.373947 0.000000 0.000001
									CHANNELS 3 Xrotation Yrotation Zrotation
									JOINT LeftHandMiddle2
									{
										OFFSET 6.996567 0.000000 0.000000
										CHANNELS 3 Xrotation Yrotation Zrotation
										JOINT LeftHandMiddle3
										{
											OFFSET 7.015945 0.000000 0.000000
											CHANNELS 3 Xrotation Yrotation Zrotation
											JOINT LeftHandMiddle4
											{
												OFFSET 7.721573 0.000000 0.000000
												CHANNELS 3 Xrotation Yrotation Zrotation
												End Site
												{
													OFFSET -4.651108 6.158463 0.251582
												}
											}
										}
									}
								}
								JOINT LeftHandIndex1
								{
									OFFSET 21.310577 -0.490082 6.209344
									CHANNELS 3 Xrotation Yrotation Zrotation
									JOINT LeftHandIndex2
									{
										OFFSET 7.536453 0.000000 0.000000
										CHANNELS 3 Xrotation Yrotation Zrotation
										JOINT LeftHandIndex3
										{
											OFFSET 7.512344 0.000000 0.000000
											CHANNELS 3 Xrotation Yrotation Zrotation
											JOINT LeftHandIndex4
											{
												OFFSET 10.212402 0.000000 0.000001
												CHANNELS 3 Xrotation Yrotation Zrotation
												End Site
												{
													OFFSET -5.180801 8.690506 1.388433
												}
											}
										}
									}
								}
							}
						}
					}
				}
				JOINT RightShoulder
				{
					OFFSET -17.399500 24.608795 1.168800
					CHANNELS 3 Xrotation Yrotation Zrotation
					JOINT RightArm
					{
						OFFSET -18.980635 5.765305 1.818600
						CHANNELS 3 Xrotation Yrotation Zrotation
						JOINT RightForeArm
						{
							OFFSET -49.290169 0.000000 0.000000
							CHANNELS 3 Xrotation Yrotation Zrotation
							JOINT RightHand
							{
								OFFSET -31.562012 0.000000 0.000000
								CHANNELS 3 Xrotation Yrotation Zrotation
								JOINT RightHandThumb1
								{
									OFFSET -6.133995 -4.388519 7.076070
									CHANNELS 3 Xrotation Yrotation Zrotation
									JOINT RightHandThumb2
									{
										OFFSET -6.037666 -3.485840 3.485847
										CHANNELS 3 Xrotation Yrotation Zrotation
										JOINT RightHandThumb3
										{
											OFFSET -6.496506 -3.750763 3.750761
											CHANNELS 3 Xrotation Yrotation Zrotation
											JOINT RightHandThumb4
											{
												OFFSET -5.616882 -3.242905 3.242910
												CHANNELS 3 Xrotation Yrotation Zrotation
												End Site
												{
													OFFSET 1.254608 7.132141 0.375429
												}
											}
										}
									}
								}
								JOINT RightHandIndex1
								{
									OFFSET -21.310577 -0.490082 6.209344
									CHANNELS 3 Xrotation Yrotation Zrotation
									JOINT RightHandIndex2
									{
										OFFSET -7.536453 0.000000 0.000000
										CHANNELS 3 Xrotation Yrotation Zrotation
										JOINT RightHandIndex3
										{
											OFFSET -7.512344 0.000000 0.000000
											CHANNELS 3 Xrotation Yrotation Zrotation
											JOINT RightHandIndex4
											{
												OFFSET -10.212402 0.000000 0.000001
												CHANNELS 3 Xrotation Yrotation Zrotation
												End Site
												{
													OFFSET 5.180801 8.690506 1.388433
												}
											}
										}
									}
								}
								JOINT RightHandMiddle1
								{
									OFFSET -23.373947 0.000000 0.000001
									CHANNELS 3 Xrotation Yrotation Zrotation
									JOINT RightHandMiddle2
									{
										OFFSET -6.996567 0.000000 0.000000
										CHANNELS 3 Xrotation Yrotation Zrotation
										JOINT RightHandMiddle3
										{
											OFFSET -7.015945 0.000000 0.000000
											CHANNELS 3 Xrotation Yrotation Zrotation
											JOINT RightHandMiddle4
											{
												OFFSET -7.721573 0.000000 0.000000
												CHANNELS 3 Xrotation Yrotation Zrotation
												End Site
												{
													OFFSET 4.651108 6.158463 0.251582
												}
											}
										}
									}
								}
								JOINT RightHandRing1
								{
									OFFSET -22.726120 -0.094986 -6.500475
									CHANNELS 3 Xrotation Yrotation Zrotation
									JOINT RightHandRing2
									{
										OFFSET -6.408615 0.000000 0.000000
										CHANNELS 3 Xrotation Yrotation Zrotation
										JOINT RightHandRing3
										{
											OFFSET -6.150223 0.000000 0.000000
											CHANNELS 3 Xrotation Yrotation Zrotation
											JOINT RightHandRing4
											{
												OFFSET -6.145386 0.000000 0.000000
												CHANNELS 3 Xrotation Yrotation Zrotation
												End Site
												{
													OFFSET 3.671402 4.923981 -0.202372
												}
											}
										}
									}
								}
								JOINT RightHandPinky1
								{
									OFFSET -18.920792 -0.453171 -11.426712
									CHANNELS 3 Xrotation Yrotation Zrotation
									JOINT RightHandPinky2
									{
										OFFSET -4.919586 0.000000 0.000000
										CHANNELS 3 Xrotation Yrotation Zrotation
										JOINT RightHandPinky3
										{
											OFFSET -5.233047 0.000000 0.000000
											CHANNELS 3 Xrotation Yrotation Zrotation
											JOINT RightHandPinky4
											{
												OFFSET -5.571716 0.000000 0.000000
												CHANNELS 3 Xrotation Yrotation Zrotation
												End Site
												{
													OFFSET 3.459808 4.342407 -0.466164
												}
											}
										}
									}
								}
							}
						}
					}
				}
			}
		}
	}
	JOINT LeftUpLeg
	{
		OFFSET 19.899099 -7.885101 -3.429500
		CHANNELS 3 Xrotation Yrotation Zrotation
		JOINT LeftLeg
		{
			OFFSET 1.745560 -36.997807 10.304700
			CHANNELS 3 Xrotation Yrotation Zrotation
			JOINT LeftFoot
			{
				OFFSET -1.745558 -29.803308 -13.615400
				CHANNELS 3 Xrotation Yrotation Zrotation
				JOINT LeftToeBase
				{
					OFFSET 1.181900 -18.539904 15.226099
					CHANNELS 3 Xrotation Yrotation Zrotation
					JOINT LeftToe_End
					{
						OFFSET -0.863701 1.402801 16.534700
						CHANNELS 3 Xrotation Yrotation Zrotation
						End Site
						{
							OFFSET 0.000000 16.616566 0.000000
						}
					}
				}
			}
		}
	}
	JOINT RightUpLeg
	{
		OFFSET -19.899099 -7.885101 -3.429500
		CHANNELS 3 Xrotation Yrotation Zrotation
		JOINT RightLeg
		{
			OFFSET -1.745560 -36.997807 10.304700
			CHANNELS 3 Xrotation Yrotation Zrotation
			JOINT RightFoot
			{
				OFFSET 1.745558 -29.803308 -13.615400
				CHANNELS 3 Xrotation Yrotation Zrotation
				JOINT RightToeBase
				{
					OFFSET -1.181900 -18.539904 15.226099
					CHANNELS 3 Xrotation Yrotation Zrotation
					JOINT RightToe_End
					{
						OFFSET 0.863701 1.402801 16.534700
						CHANNELS 3 Xrotation Yrotation Zrotation
						End Site
						{
							OFFSET 0.000000 16.616566 0.000000
						}
					}
				}
			}
		}
	}
}
MOTION
Frames: 4
Frame Time: 0.033333
2.632523 79.623238 40.003399 26.339769 -13.852508 3.725387 20.062122 7.404084 -5.384418 -2.557931 2.274529 -0.482734 -0.500942 2.261297 -0.606330 -4.604719 2.105484 2.259738 -9.352398 -3.108488 -2.889199 -0.000002 -0.000000 -0.000000 -3.173476 -5.366524 11.226547 -57.945617 -11.743979 -31.113445 0.000423 -100.421007 0.000405 -20.376614 8.370369 41.287223 67.847657 -45.369385 19.968137 33.382744 46.970740 -20.703700 27.970656 14.837961 -35.970959 0.000000 -0.000000 0.000000 4.858351 8.660116 -79.728361 3.049959 5.139029 -61.355159 4.351296 5.656226 -75.123359 0.000000 0.000001 -0.000000 4.723851 8.080325 -80.208175 4.836707 5.762747 -79.999281 1.711887 4.139057 -44.924524 -0.000000 0.000001 0.000007 3.947368 7.875813 -74.483056 5.235018 5.818667 -83.945914 1.234922 3.599196 -37.864882 -0.000002 -0.000000 0.000009 2.146279 6.208332 -80.565121 4.589147 5.713810 -77.523856 1.433557 3.840545 -40.926012 0.000003 -0.000002 -0.000001 1.476206 7.423324 -13.075134 -62.836572 13.974415 24.303321 0.000379 92.649597 -0.000457 -27.809730 -7.688798 -42.670196 47.493792 55.967178 -28.864588 68.310136 -51.829412 54.843373 14.162016 -77.249549 -8.212210 0.000000 0.000001 0.000001 -8.393298 10.981872 80.182528 4.936788 -4.648781 93.445833 0.026465 -0.496371 6.104908 -0.000003 -0.000002 0.000003 -2.224654 -6.164035 83.290189 4.661952 -4.657165 90.058892 1.318486 -3.248738 44.169942 0.000002 -0.000001 -0.000004 2.715622 -6.824567 86.643443 3.618084 -4.540012 77.094121 1.052763 -2.951095 39.259234 -0.000002 0.000001 -0.000003 12.203648 -13.774249 93.180992 1.850763 -3.718103 52.913271 2.030668 -3.847228 55.639739 0.000001 -0.000003 0.000000 -68.168587 17.742176 12.537764 45.627928 -5.417838 7.533774 -5.923272 10.656389 -1.937673 0.888690 -0.000003 0.000347 -0.000000 0.000000 0.000000 -8.206008 -8.890280 -18.710354 16.976063 7.756881 1.656452 -28.500424 1.302459 12.709792 -16.797807 0.000009 -0.000003 -0.000001 -0.000001 -0.000001 
2.637830 79.472984 40.117706 27.059521 -13.721229 3.912482 20.285261 7.356933 -5.704695 -2.487631 2.271125 -0.499335 -0.441068 2.253712 -0.620633 -5.216809 2.116755 2.257843 -9.768562 -3.071499 -2.757844 0.000001 0.000000 0.000000 -2.840617 -5.816194 13.462261 -59.974464 -11.864329 -30.377700 0.000040 -97.468869 0.000077 -23.216605 7.879110 41.060587 67.882812 -45.433524 19.915370 33.449417 47.035732 -20.730123 28.002703 14.777980 -36.044664 0.000001 -0.000002 0.000002 4.868764 8.632809 -79.816457 3.060341 5.144662 -61.471020 4.360333 5.658607 -75.214883 -0.000001 0.000001 0.000001 4.747270 8.084734 -80.337737 4.848776 5.764851 -80.119546 1.713009 4.140167 -44.939824 -0.000000 -0.000001 0.000005 3.979777 7.885556 -74.598295 5.249406 5.820158 -84.087729 1.238361 3.603607 -37.919673 0.000000 -0.000004 0.000004 2.164637 6.216886 -80.718288 4.602696 5.716788 -77.659961 1.437905 3.845547 -40.990844 -0.000001 0.000001 -0.000001 1.785980 7.729480 -14.659696 -63.811944 14.502500 22.212993 0.070271 89.986301 -0.072156 -30.787655 -7.385671 -42.414225 47.493997 55.964364 -28.867159 68.297500 -51.830450 54.838045 14.152314 -77.255757 -8.224057 0.000003 -0.000001 -0.000000 -8.402260 10.981197 80.191578 4.937410 -4.648753 93.453578 0.026509 -0.496790 6.110193 -0.000003 -0.000001 -0.000003 -2.221890 -6.164978 83.295680 4.662342 -4.657168 90.063947 1.318200 -3.248448 44.164898 0.000002 -0.000002 -0.000004 2.718770 -6.824915 86.649501 3.618637 -4.540135 77.101361 1.052661 -2.950959 39.257045 0.000001 -0.000001 -0.000007 12.206941 -13.767500 93.188362 1.851153 -3.718402 52.919291 2.030135 -3.846862 55.631966 -0.000001 -0.000002 0.000002 -68.840056 17.513011 12.525499 45.727604 -5.207380 7.303684 -6.025192 10.545079 -1.916201 0.897147 -0.000006 0.000360 -0.000000 0.000001 -0.000000 -8.757340 -8.706613 -18.747823 17.055660 7.605022 1.692384 -28.714600 1.163104 12.633818 -16.930588 -0.000001 0.000003 0.000000 -0.000000 -0.000001 
2.648910 79.334702 40.229378 27.718381 -13.582289 4.087212 20.499175 7.310591 -5.989467 -2.423199 2.266054 -0.513647 -0.386812 2.245263 -0.633992 -5.754063 2.128737 2.236264 -10.091222 -3.076584 -2.635423 -0.000001 -0.000000 -0.000000 -2.419413 -6.283566 16.028291 -61.683759 -11.636044 -29.520033 -0.000345 -94.486317 -0.000354 -26.179842 7.169982 40.820059 67.916505 -45.495094 19.864796 33.513529 47.097993 -20.755734 28.033248 14.720390 -36.115230 -0.000003 0.000001 0.000000 4.878838 8.606616 -79.900946 3.070289 5.150043 -61.582119 4.369014 5.660895 -75.302665 0.000000 0.000003 -0.000004 4.769733 8.088902 -80.462033 4.860339 5.766859 -80.234847 1.714058 4.141244 -44.954475 -0.000003 -0.000001 0.000003 4.010921 7.894783 -74.708821 5.263204 5.821553 -84.223705 1.241648 3.607812 -37.972201 0.000001 -0.000002 0.000004 2.182028 6.224823 -80.865198 4.615691 5.719612 -77.790472 1.442089 3.850329 -41.053050 0.000001 0.000002 -0.000003 2.184517 8.028133 -16.577527 -64.570853 14.686852 20.214560 0.000476 87.325806 -0.000469 -33.733505 -7.005121 -42.025409 47.494687 55.961919 -28.869977 68.288286 -51.832164 54.835832 14.140350 -77.259241 -8.237336 0.000004 0.000001 0.000002 -8.409384 10.981428 80.196038 4.937492 -4.648749 93.454535 0.026559 -0.497187 6.114985 0.000002 0.000000 0.000001 -2.219324 -6.165605 83.298617 4.662387 -4.657153 90.064111 1.317917 -3.248163 44.160124 0.000004 0.000001 -0.000002 2.721603 -6.825186 86.652786 3.618919 -4.540194 77.104660 1.052535 -2.950818 39.254907 -0.000000 -0.000002 -0.000005 12.209559 -13.761811 93.192064 1.851342 -3.718530 52.922116 2.029677 -3.846539 55.625085 -0.000004 0.000001 0.000006 -69.415868 17.220278 12.483886 45.803160 -4.969967 7.041278 -6.117955 10.461574 -1.905449 0.902927 -0.000010 0.000358 0.000000 0.000000 0.000000 -9.167731 -8.544597 -18.751369 17.031131 7.400112 1.690549 -28.989000 0.989238 12.547067 -16.982480 0.000001 -0.000001 -0.000001 -0.000001 -0.000001 
2.663429 79.203613 40.339176 28.334797 -13.436956 4.254838 20.681488 7.266794 -6.248147 -2.365044 2.255131 -0.517746 -0.338697 2.231998 -0.637147 -6.193918 2.141236 2.198198 -10.370952 -3.124404 -2.546846 -0.000000 -0.000000 -0.000000 -1.884882 -6.761267 18.993726 -63.077200 -10.943343 -28.589078 0.000094 -91.520259 -0.000067 -29.234600 6.259923 40.522112 67.950041 -45.556662 19.814170 33.577838 47.160202 -20.781537 28.063582 14.662734 -36.185704 -0.000003 -0.000001 -0.000004 4.888833 8.580428 -79.985395 3.080286 5.155421 -61.693171 4.377646 5.663129 -75.390412 -0.000004 0.000002 -0.000002 4.792187 8.093015 -80.586233 4.871927 5.768833 -80.350127 1.715123 4.142299 -44.969139 -0.000002 -0.000001 0.000005 4.042062 7.903914 -74.819272 5.276996 5.822925 -84.359673 1.244967 3.612049 -38.024712 -0.000002 -0.000002 0.000006 2.199302 6.232717 -81.012047 4.628702 5.722388 -77.920929 1.446263 3.855104 -41.115218 -0.000005 0.000001 0.000001 2.667140 8.310541 -18.784858 -65.147137 14.573100 18.330549 0.000438 84.636282 -0.000423 -36.619827 -6.555986 -41.472308 47.496394 55.959460 -28.873686 68.282193 -51.834333 54.836017 14.127664 -77.261966 -8.251014 0.000002 0.000000 -0.000000 -8.415673 10.981615 80.199951 4.937393 -4.648753 93.453278 0.026583 -0.497527 6.119218 -0.000001 -0.000003 -0.000001 -2.216774 -6.166230 83.301465 4.662381 -4.657160 90.064322 1.317743 -3.248002 44.157306 -0.000000 0.000000 -0.000004 2.724347 -6.825432 86.655915 3.619146 -4.540255 77.107454 1.052406 -2.950663 39.252725 0.000001 -0.000002 -0.000005 12.211959 -13.756801 93.194543 1.851544 -3.718691 52.925200 2.029274 -3.846252 55.619023 0.000005 -0.000002 0.000005 -69.919547 16.865955 12.411054 45.863071 -4.713719 6.755372 -6.203756 10.417608 -1.907669 0.906659 0.000002 0.000353 0.000000 0.000000 0.000000 -9.494423 -8.401581 -18.729063 16.954008 7.159885 1.641662 -29.303748 0.796570 12.467202 -16.990797 -0.000002 0.000005 -0.000000 -0.000001 -0.000001 
